<svg id="logo-icon" xmlns="http://www.w3.org/2000/svg" width="24.73" height="24.73" viewBox="0 0 24.73 24.73">
  <path id="Path_5310" data-name="Path 5310" d="M263.147,259.679l-6.074-6.074v6.183H250.89l6.074,6.074C261.641,265.56,262.845,264.356,263.147,259.679Z" transform="translate(-250.89 -253.605)" fill="#da291c"/>
  <path id="Path_5311" data-name="Path 5311" d="M281.908,259.679c.3,4.677,1.505,5.881,6.183,6.183l6.074-6.074h-6.183v-6.183Z" transform="translate(-269.434 -253.605)" fill="#da291c"/>
  <path id="Path_5312" data-name="Path 5312" d="M263.147,290.8c-.3-4.677-1.505-5.881-6.182-6.183L250.89,290.7h6.183v6.182Z" transform="translate(-250.89 -272.149)" fill="#da291c"/>
  <path id="Path_5313" data-name="Path 5313" d="M281.908,290.8l6.074,6.074V290.7h6.183l-6.074-6.074C283.413,284.924,282.21,286.127,281.908,290.8Z" transform="translate(-269.434 -272.149)" fill="#da291c"/>
</svg>
